<svg width="105" height="116" viewBox="0 0 105 116" fill="none" xmlns="http://www.w3.org/2000/svg">
<g filter="url(#filter0_d_12_106)">
<path d="M6 36.3349C6 18.17 18.5667 2.2285 36.6663 0.69024C41.6003 0.270911 46.8 0 51.9997 0C57.3494 0 62.7406 0.286768 67.8645 0.726901C86.0655 2.29032 98.766 18.2926 98.766 36.5607V61.9701C98.766 81.8627 83.7867 98.6868 63.9057 99.3658C60.0967 99.4959 56.2114 99.5745 52.383 99.5745C48.5546 99.5745 44.6693 99.4959 40.8603 99.3658C20.9793 98.6868 6 81.8626 6 61.9701V36.3349Z" fill="url(#paint0_linear_12_106)"/>
</g>
<ellipse opacity="0.2" cx="22.5208" cy="14.0508" rx="4.75915" ry="9.7236" transform="rotate(51.2789 22.5208 14.0508)" fill="white"/>
<path opacity="0.25" fill-rule="evenodd" clip-rule="evenodd" d="M6.37546 52.5458V62.4317C6.37546 82.3042 21.3257 99.1234 41.1867 99.7984C44.8902 99.9243 48.6637 100 52.3831 100C56.1025 100 59.876 99.9243 63.5795 99.7984C83.4404 99.1234 98.3907 82.3041 98.3907 62.4317V52.5458C98.3907 72.4182 83.4404 89.2375 63.5795 89.9125C59.876 90.0384 56.1025 90.1141 52.3831 90.1141C48.6637 90.1141 44.8902 90.0384 41.1867 89.9125C21.3257 89.2375 6.37546 72.4183 6.37546 52.5458Z" fill="#161A25"/>
<path opacity="0.5" d="M6.5 36.3349C6.5 18.3876 18.9079 2.70132 36.7087 1.18844C41.6316 0.770051 46.8169 0.5 51.9997 0.5C57.3321 0.5 62.7086 0.785866 67.8217 1.22507C85.7261 2.76301 98.266 18.5122 98.266 36.5607V61.9701C98.266 81.6166 83.4774 98.197 63.8886 98.8661C60.0842 98.9961 56.2047 99.0745 52.383 99.0745C48.5613 99.0745 44.6818 98.9961 40.8774 98.8661C21.2886 98.197 6.5 81.6166 6.5 61.9701V36.3349Z" stroke="url(#paint1_linear_12_106)"/>
<path d="M37.5431 66.5804C38.45 66.5804 39.1974 66.6897 39.7853 66.9085C40.3777 67.1272 40.8175 67.4576 41.1046 67.8997C41.3917 68.3417 41.5353 68.9 41.5353 69.5745C41.5353 70.0302 41.4487 70.429 41.2755 70.7708C41.1024 71.1126 40.8745 71.402 40.5919 71.6389C40.3094 71.8759 40.004 72.0696 39.6759 72.22L42.6154 76.5745H40.2638L37.8781 72.7395H36.7501V76.5745H34.631V66.5804H37.5431ZM37.3927 68.3167H36.7501V71.0169H37.4337C38.1356 71.0169 38.6369 70.9007 38.9376 70.6682C39.243 70.4313 39.3956 70.0849 39.3956 69.6292C39.3956 69.1552 39.2316 68.818 38.9035 68.6175C38.5799 68.4169 38.0763 68.3167 37.3927 68.3167ZM46.8605 68.7884C47.5669 68.7884 48.1753 68.9251 48.6857 69.1985C49.1961 69.4674 49.5903 69.8593 49.8683 70.3743C50.1463 70.8893 50.2853 71.5182 50.2853 72.261V73.2727H45.3566C45.3794 73.8606 45.5548 74.3232 45.8829 74.6604C46.2156 74.9931 46.6759 75.1595 47.2638 75.1595C47.7514 75.1595 48.1981 75.1093 48.6037 75.0091C49.0093 74.9088 49.4262 74.7584 49.8546 74.5579V76.1712C49.4764 76.358 49.0799 76.4947 48.6652 76.5813C48.255 76.6679 47.756 76.7112 47.1681 76.7112C46.4025 76.7112 45.7234 76.5699 45.131 76.2874C44.5431 76.0048 44.0805 75.5742 43.7433 74.9954C43.4106 74.4166 43.2443 73.6874 43.2443 72.8079C43.2443 71.9147 43.3947 71.1718 43.6954 70.5794C44.0008 69.9824 44.4246 69.5358 44.9669 69.2395C45.5093 68.9388 46.1404 68.7884 46.8605 68.7884ZM46.8742 70.2718C46.4686 70.2718 46.1313 70.4016 45.8624 70.6614C45.5981 70.9212 45.4454 71.3291 45.4044 71.885H48.3302C48.3257 71.5751 48.2687 71.2994 48.1593 71.0579C48.0545 70.8164 47.895 70.6249 47.6808 70.4837C47.4712 70.3424 47.2023 70.2718 46.8742 70.2718ZM57.3126 74.305C57.3126 74.8245 57.1896 75.2643 56.9435 75.6243C56.702 75.9798 56.3397 76.2509 55.8566 76.4378C55.3735 76.6201 54.7719 76.7112 54.0519 76.7112C53.5187 76.7112 53.0607 76.677 52.6779 76.6087C52.2996 76.5403 51.9168 76.4264 51.5294 76.2669V74.5442C51.9441 74.7311 52.3885 74.886 52.8624 75.0091C53.341 75.1276 53.7602 75.1868 54.1203 75.1868C54.5259 75.1868 54.8152 75.1276 54.9884 75.0091C55.1662 74.886 55.255 74.7265 55.255 74.5305C55.255 74.4029 55.2186 74.289 55.1456 74.1888C55.0773 74.0839 54.9269 73.9677 54.6945 73.8401C54.4621 73.708 54.0975 73.5371 53.6007 73.3274C53.1222 73.1269 52.728 72.9241 52.4181 72.719C52.1128 72.5139 51.8849 72.2724 51.7345 71.9944C51.5887 71.7119 51.5158 71.3541 51.5158 70.9212C51.5158 70.2148 51.7892 69.6839 52.3361 69.3284C52.8875 68.9684 53.6235 68.7884 54.5441 68.7884C55.018 68.7884 55.4692 68.8362 55.8976 68.9319C56.3305 69.0276 56.7749 69.1803 57.2306 69.3899L56.6017 70.8938C56.2234 70.7298 55.8657 70.5953 55.5285 70.4905C55.1958 70.3857 54.8563 70.3333 54.5099 70.3333C54.2046 70.3333 53.9744 70.3743 53.8195 70.4563C53.6645 70.5384 53.5871 70.6637 53.5871 70.8323C53.5871 70.9554 53.6258 71.0647 53.7033 71.1604C53.7853 71.2561 53.9402 71.3632 54.1681 71.4817C54.4005 71.5957 54.74 71.7438 55.1867 71.9261C55.6196 72.1038 55.9956 72.2906 56.3146 72.4866C56.6336 72.678 56.8797 72.9173 57.0529 73.2044C57.226 73.4869 57.3126 73.8538 57.3126 74.305ZM62.091 68.7884C62.7973 68.7884 63.4057 68.9251 63.9162 69.1985C64.4266 69.4674 64.8208 69.8593 65.0988 70.3743C65.3768 70.8893 65.5158 71.5182 65.5158 72.261V73.2727H60.5871C60.6098 73.8606 60.7853 74.3232 61.1134 74.6604C61.4461 74.9931 61.9064 75.1595 62.4943 75.1595C62.9819 75.1595 63.4285 75.1093 63.8341 75.0091C64.2397 74.9088 64.6567 74.7584 65.0851 74.5579V76.1712C64.7068 76.358 64.3104 76.4947 63.8956 76.5813C63.4855 76.6679 62.9865 76.7112 62.3986 76.7112C61.6329 76.7112 60.9539 76.5699 60.3615 76.2874C59.7736 76.0048 59.311 75.5742 58.9738 74.9954C58.6411 74.4166 58.4747 73.6874 58.4747 72.8079C58.4747 71.9147 58.6251 71.1718 58.9259 70.5794C59.2313 69.9824 59.6551 69.5358 60.1974 69.2395C60.7397 68.9388 61.3709 68.7884 62.091 68.7884ZM62.1046 70.2718C61.699 70.2718 61.3618 70.4016 61.0929 70.6614C60.8286 70.9212 60.6759 71.3291 60.6349 71.885H63.5607C63.5561 71.5751 63.4992 71.2994 63.3898 71.0579C63.285 70.8164 63.1255 70.6249 62.9113 70.4837C62.7016 70.3424 62.4328 70.2718 62.1046 70.2718ZM70.4308 75.0501C70.6587 75.0501 70.8797 75.0273 71.0939 74.9817C71.3126 74.9361 71.5291 74.8792 71.7433 74.8108V76.3626C71.52 76.4628 71.242 76.5449 70.9093 76.6087C70.5812 76.677 70.2212 76.7112 69.8292 76.7112C69.3735 76.7112 68.9634 76.6383 68.5988 76.4925C68.2387 76.3421 67.9539 76.0846 67.7443 75.72C67.5392 75.3509 67.4367 74.8382 67.4367 74.1819V70.4973H66.4386V69.6155L67.5871 68.9182L68.1886 67.305H69.5216V68.9319H71.6613V70.4973H69.5216V74.1819C69.5216 74.4736 69.6037 74.6923 69.7677 74.8382C69.9363 74.9794 70.1574 75.0501 70.4308 75.0501Z" fill="white"/>
<g filter="url(#filter1_d_12_106)">
<rect x="60.8352" y="21.8623" width="11.0638" height="35.4232" rx="4" transform="rotate(45 60.8352 21.8623)" fill="white"/>
<rect x="69.3924" y="46.6833" width="11.0638" height="34.781" rx="4" transform="rotate(135 69.3924 46.6833)" fill="white"/>
</g>
<defs>
<filter id="filter0_d_12_106" x="0" y="0" width="104.766" height="115.575" filterUnits="userSpaceOnUse" color-interpolation-filters="sRGB">
<feFlood flood-opacity="0" result="BackgroundImageFix"/>
<feColorMatrix in="SourceAlpha" type="matrix" values="0 0 0 0 0 0 0 0 0 0 0 0 0 0 0 0 0 0 127 0" result="hardAlpha"/>
<feOffset dy="10"/>
<feGaussianBlur stdDeviation="3"/>
<feComposite in2="hardAlpha" operator="out"/>
<feColorMatrix type="matrix" values="0 0 0 0 0 0 0 0 0 0 0 0 0 0 0 0 0 0 0.15 0"/>
<feBlend mode="normal" in2="BackgroundImageFix" result="effect1_dropShadow_12_106"/>
<feBlend mode="normal" in="SourceGraphic" in2="effect1_dropShadow_12_106" result="shape"/>
</filter>
<filter id="filter1_d_12_106" x="33.4441" y="21.5192" width="38.2915" height="37.5576" filterUnits="userSpaceOnUse" color-interpolation-filters="sRGB">
<feFlood flood-opacity="0" result="BackgroundImageFix"/>
<feColorMatrix in="SourceAlpha" type="matrix" values="0 0 0 0 0 0 0 0 0 0 0 0 0 0 0 0 0 0 127 0" result="hardAlpha"/>
<feOffset dy="2"/>
<feGaussianBlur stdDeviation="2"/>
<feComposite in2="hardAlpha" operator="out"/>
<feColorMatrix type="matrix" values="0 0 0 0 0.462745 0 0 0 0 0.231373 0 0 0 0 0.784314 0 0 0 1 0"/>
<feBlend mode="normal" in2="BackgroundImageFix" result="effect1_dropShadow_12_106"/>
<feBlend mode="normal" in="SourceGraphic" in2="effect1_dropShadow_12_106" result="shape"/>
</filter>
<linearGradient id="paint0_linear_12_106" x1="2.17021" y1="-38.2979" x2="58.4704" y2="91.561" gradientUnits="userSpaceOnUse">
<stop offset="0.0141299" stop-color="#33F0B0"/>
<stop offset="1" stop-color="#EFC1C1"/>
</linearGradient>
<linearGradient id="paint1_linear_12_106" x1="52.383" y1="0" x2="52.383" y2="99.5745" gradientUnits="userSpaceOnUse">
<stop stop-color="white"/>
<stop offset="1" stop-color="white" stop-opacity="0"/>
</linearGradient>
</defs>
</svg>