<svg width="105" height="116" viewBox="0 0 105 116" fill="none" xmlns="http://www.w3.org/2000/svg">
<g filter="url(#filter0_d_12_95)">
<path d="M6 36.3349C6 18.17 18.5667 2.2285 36.6663 0.69024C41.6003 0.270911 46.8 0 51.9997 0C57.3494 0 62.7406 0.286768 67.8645 0.726901C86.0655 2.29032 98.766 18.2926 98.766 36.5607V61.9701C98.766 81.8627 83.7867 98.6868 63.9057 99.3658C60.0967 99.4959 56.2114 99.5745 52.383 99.5745C48.5546 99.5745 44.6693 99.4959 40.8603 99.3658C20.9793 98.6868 6 81.8626 6 61.9701V36.3349Z" fill="url(#paint0_linear_12_95)"/>
</g>
<ellipse opacity="0.3" cx="22.5208" cy="14.0508" rx="4.75915" ry="9.7236" transform="rotate(51.2789 22.5208 14.0508)" fill="white"/>
<path opacity="0.3" fill-rule="evenodd" clip-rule="evenodd" d="M6.37546 52.5458V62.4317C6.37546 82.3042 21.3257 99.1234 41.1867 99.7984C44.8902 99.9243 48.6637 100 52.3831 100C56.1025 100 59.876 99.9243 63.5795 99.7984C83.4404 99.1234 98.3907 82.3041 98.3907 62.4317V52.5458C98.3907 72.4182 83.4404 89.2375 63.5795 89.9125C59.876 90.0384 56.1025 90.1141 52.3831 90.1141C48.6637 90.1141 44.8902 90.0384 41.1867 89.9125C21.3257 89.2375 6.37546 72.4183 6.37546 52.5458Z" fill="#33F0B0"/>
<path opacity="0.5" d="M6.5 36.3349C6.5 18.3876 18.9079 2.70132 36.7087 1.18844C41.6316 0.770051 46.8169 0.5 51.9997 0.5C57.3321 0.5 62.7086 0.785866 67.8217 1.22507C85.7261 2.76301 98.266 18.5122 98.266 36.5607V61.9701C98.266 81.6166 83.4774 98.197 63.8886 98.8661C60.0842 98.9961 56.2047 99.0745 52.383 99.0745C48.5613 99.0745 44.6818 98.9961 40.8774 98.8661C21.2886 98.197 6.5 81.6166 6.5 61.9701V36.3349Z" stroke="url(#paint1_linear_12_95)"/>
<path d="M42.6862 72.305C42.6862 72.8245 42.5632 73.2643 42.3171 73.6243C42.0756 73.9798 41.7132 74.2509 41.2302 74.4378C40.7471 74.6201 40.1455 74.7112 39.4255 74.7112C38.8923 74.7112 38.4343 74.677 38.0515 74.6087C37.6732 74.5403 37.2904 74.4264 36.903 74.2669V72.5442C37.3177 72.7311 37.7621 72.886 38.236 73.0091C38.7145 73.1276 39.1338 73.1868 39.4938 73.1868C39.8994 73.1868 40.1888 73.1276 40.362 73.0091C40.5397 72.886 40.6286 72.7265 40.6286 72.5305C40.6286 72.4029 40.5922 72.289 40.5192 72.1888C40.4509 72.0839 40.3005 71.9677 40.0681 71.8401C39.8356 71.708 39.4711 71.5371 38.9743 71.3274C38.4958 71.1269 38.1016 70.9241 37.7917 70.719C37.4864 70.5139 37.2585 70.2724 37.1081 69.9944C36.9623 69.7119 36.8894 69.3541 36.8894 68.9212C36.8894 68.2148 37.1628 67.6839 37.7097 67.3284C38.2611 66.9684 38.9971 66.7884 39.9177 66.7884C40.3916 66.7884 40.8428 66.8362 41.2712 66.9319C41.7041 67.0276 42.1485 67.1803 42.6042 67.3899L41.9753 68.8938C41.597 68.7298 41.2393 68.5953 40.902 68.4905C40.5694 68.3857 40.2298 68.3333 39.8835 68.3333C39.5782 68.3333 39.348 68.3743 39.1931 68.4563C39.0381 68.5384 38.9606 68.6637 38.9606 68.8323C38.9606 68.9554 38.9994 69.0647 39.0769 69.1604C39.1589 69.2561 39.3138 69.3632 39.5417 69.4817C39.7741 69.5957 40.1136 69.7438 40.5603 69.9261C40.9932 70.1038 41.3692 70.2906 41.6882 70.4866C42.0072 70.678 42.2533 70.9173 42.4265 71.2044C42.5996 71.4869 42.6862 71.8538 42.6862 72.305ZM47.5329 73.0501C47.7608 73.0501 47.9818 73.0273 48.196 72.9817C48.4147 72.9361 48.6312 72.8792 48.8454 72.8108V74.3626C48.6221 74.4628 48.3441 74.5449 48.0114 74.6087C47.6833 74.677 47.3233 74.7112 46.9313 74.7112C46.4756 74.7112 46.0655 74.6383 45.7009 74.4925C45.3409 74.3421 45.056 74.0846 44.8464 73.72C44.6413 73.3509 44.5388 72.8382 44.5388 72.1819V68.4973H43.5407V67.6155L44.6892 66.9182L45.2907 65.305H46.6237V66.9319H48.7634V68.4973H46.6237V72.1819C46.6237 72.4736 46.7058 72.6923 46.8698 72.8382C47.0384 72.9794 47.2595 73.0501 47.5329 73.0501ZM53.528 66.7747C54.5534 66.7747 55.3395 66.998 55.8864 67.4446C56.4333 67.8912 56.7067 68.5703 56.7067 69.4817V74.5745H55.2507L54.8474 73.5354H54.7927C54.5739 73.8089 54.3506 74.0322 54.1228 74.2054C53.8949 74.3785 53.6328 74.5061 53.3366 74.5882C53.0404 74.6702 52.6804 74.7112 52.2565 74.7112C51.8054 74.7112 51.3998 74.6246 51.0397 74.4514C50.6843 74.2783 50.404 74.0139 50.1989 73.6585C49.9938 73.2985 49.8913 72.8427 49.8913 72.2913C49.8913 71.4801 50.1761 70.8831 50.7458 70.5003C51.3155 70.1129 52.17 69.8987 53.3093 69.8577L54.6354 69.8167V69.4817C54.6354 69.0807 54.5306 68.7867 54.321 68.5999C54.1114 68.413 53.8197 68.3196 53.446 68.3196C53.0769 68.3196 52.7145 68.372 52.3591 68.4768C52.0036 68.5817 51.6481 68.7138 51.2927 68.8733L50.6022 67.4651C51.0078 67.2509 51.4613 67.0823 51.9626 66.9593C52.4685 66.8362 52.9903 66.7747 53.528 66.7747ZM54.6354 71.0335L53.8288 71.0608C53.1543 71.0791 52.6849 71.1998 52.4206 71.4231C52.1608 71.6464 52.031 71.9404 52.031 72.305C52.031 72.624 52.1244 72.8518 52.3112 72.9886C52.4981 73.1207 52.7419 73.1868 53.0427 73.1868C53.4893 73.1868 53.8653 73.0546 54.1706 72.7903C54.4805 72.526 54.6354 72.15 54.6354 71.6624V71.0335ZM63.1257 66.7884C63.2305 66.7884 63.3513 66.7952 63.488 66.8089C63.6293 66.818 63.7432 66.8317 63.8298 66.8499L63.6726 68.805C63.6042 68.7822 63.5062 68.7662 63.3786 68.7571C63.2556 68.7434 63.1485 68.7366 63.0573 68.7366C62.7884 68.7366 62.5264 68.7708 62.2712 68.8391C62.0205 68.9075 61.795 69.0192 61.5944 69.1741C61.3939 69.3245 61.2344 69.525 61.1159 69.7757C61.002 70.0218 60.945 70.3248 60.945 70.6848V74.5745H58.8601V66.9319H60.4392L60.7468 68.2171H60.8493C60.9997 67.9573 61.1866 67.7203 61.4099 67.5061C61.6377 67.2874 61.8952 67.1142 62.1823 66.9866C62.474 66.8544 62.7884 66.7884 63.1257 66.7884ZM68.4372 73.0501C68.6651 73.0501 68.8861 73.0273 69.1003 72.9817C69.319 72.9361 69.5355 72.8792 69.7497 72.8108V74.3626C69.5264 74.4628 69.2484 74.5449 68.9157 74.6087C68.5876 74.677 68.2276 74.7112 67.8356 74.7112C67.3799 74.7112 66.9698 74.6383 66.6052 74.4925C66.2451 74.3421 65.9603 74.0846 65.7507 73.72C65.5456 73.3509 65.4431 72.8382 65.4431 72.1819V68.4973H64.445V67.6155L65.5935 66.9182L66.195 65.305H67.528V66.9319H69.6677V68.4973H67.528V72.1819C67.528 72.4736 67.6101 72.6923 67.7741 72.8382C67.9427 72.9794 68.1638 73.0501 68.4372 73.0501Z" fill="white"/>
<g filter="url(#filter1_d_12_95)">
<path d="M64.9873 34.4453C67.5702 36 67.5702 39.7447 64.9873 41.2994L46.7437 52.2806C44.0777 53.8853 40.6809 51.9652 40.6809 48.8536L40.6809 26.8912C40.6809 23.7795 44.0777 21.8594 46.7437 23.4641L64.9873 34.4453Z" fill="white"/>
</g>
<defs>
<filter id="filter0_d_12_95" x="0" y="0" width="104.766" height="115.575" filterUnits="userSpaceOnUse" color-interpolation-filters="sRGB">
<feFlood flood-opacity="0" result="BackgroundImageFix"/>
<feColorMatrix in="SourceAlpha" type="matrix" values="0 0 0 0 0 0 0 0 0 0 0 0 0 0 0 0 0 0 127 0" result="hardAlpha"/>
<feOffset dy="10"/>
<feGaussianBlur stdDeviation="3"/>
<feComposite in2="hardAlpha" operator="out"/>
<feColorMatrix type="matrix" values="0 0 0 0 0 0 0 0 0 0 0 0 0 0 0 0 0 0 0.15 0"/>
<feBlend mode="normal" in2="BackgroundImageFix" result="effect1_dropShadow_12_95"/>
<feBlend mode="normal" in="SourceGraphic" in2="effect1_dropShadow_12_95" result="shape"/>
</filter>
<filter id="filter1_d_12_95" x="36.6808" y="20.885" width="34.2437" height="37.9747" filterUnits="userSpaceOnUse" color-interpolation-filters="sRGB">
<feFlood flood-opacity="0" result="BackgroundImageFix"/>
<feColorMatrix in="SourceAlpha" type="matrix" values="0 0 0 0 0 0 0 0 0 0 0 0 0 0 0 0 0 0 127 0" result="hardAlpha"/>
<feOffset dy="2"/>
<feGaussianBlur stdDeviation="2"/>
<feComposite in2="hardAlpha" operator="out"/>
<feColorMatrix type="matrix" values="0 0 0 0 0.105882 0 0 0 0 0.6 0 0 0 0 0.870588 0 0 0 0.5 0"/>
<feBlend mode="normal" in2="BackgroundImageFix" result="effect1_dropShadow_12_95"/>
<feBlend mode="normal" in="SourceGraphic" in2="effect1_dropShadow_12_95" result="shape"/>
</filter>
<linearGradient id="paint0_linear_12_95" x1="25.1489" y1="10.6383" x2="83.7082" y2="153.097" gradientUnits="userSpaceOnUse">
<stop stop-color="#C8FFEC"/>
<stop offset="1" stop-color="#0D8AFC"/>
</linearGradient>
<linearGradient id="paint1_linear_12_95" x1="52.383" y1="0" x2="52.383" y2="99.5745" gradientUnits="userSpaceOnUse">
<stop stop-color="white"/>
<stop offset="1" stop-color="white" stop-opacity="0"/>
</linearGradient>
</defs>
</svg>
